<?xml version="1.0" standalone="no"?>
<!DOCTYPE svg PUBLIC "-//W3C//DTD SVG 20010904//EN"
 "http://www.w3.org/TR/2001/REC-SVG-20010904/DTD/svg10.dtd">
<svg version="1.0" xmlns="http://www.w3.org/2000/svg"
 width="700.000000pt" height="700.000000pt" viewBox="0 0 700.000000 700.000000"
 preserveAspectRatio="xMidYMid meet">
<metadata>
Created by potrace 1.14, written by Peter Selinger 2001-2017
</metadata>
<g transform="translate(0.000000,700.000000) scale(0.100000,-0.100000)"
fill="#000000" stroke="none">
<path d="M1440 6720 c-243 -29 -417 -192 -608 -566 -62 -122 -183 -403 -209
-484 -23 -75 -28 -225 -9 -300 21 -80 65 -178 110 -239 67 -93 87 -163 66
-240 -13 -50 -75 -122 -125 -145 -18 -9 -118 -37 -222 -61 -103 -25 -198 -50
-210 -57 -55 -28 -39 -61 98 -204 126 -131 146 -167 159 -286 21 -173 -20
-359 -106 -489 -54 -82 -110 -134 -217 -203 -74 -48 -137 -105 -137 -124 0 -4
8 -21 18 -37 41 -67 211 -125 367 -127 93 -1 123 7 186 55 30 22 63 16 79 -13
14 -26 0 -57 -51 -116 -79 -91 -87 -148 -37 -271 24 -60 32 -98 36 -163 5
-102 -11 -171 -73 -317 -57 -133 -63 -165 -37 -191 27 -27 119 -36 220 -22
116 17 135 9 258 -114 55 -56 122 -119 148 -140 32 -26 57 -58 74 -94 32 -71
27 -123 -28 -267 -52 -136 -52 -191 -1 -237 45 -40 79 -37 286 33 225 75 273
81 375 44 241 -87 376 -218 415 -402 8 -38 15 -84 15 -104 0 -50 26 -131 50
-157 35 -38 71 -29 127 30 175 187 273 238 468 246 88 3 128 0 198 -17 49 -12
110 -21 135 -21 107 0 179 -47 227 -148 35 -73 128 -218 168 -259 57 -61 86
-41 168 117 100 194 232 296 459 355 356 92 519 70 709 -95 68 -58 101 -73
135 -61 31 12 35 25 46 155 10 120 21 169 52 231 77 151 183 226 453 318 255
87 389 101 582 59 113 -24 147 -20 155 20 8 44 -23 162 -74 278 -68 152 -70
178 -23 355 45 174 91 316 120 375 82 163 212 258 399 291 79 13 150 55 160
94 11 43 -20 78 -170 199 -76 61 -147 127 -159 146 -18 31 -20 55 -23 227 -4
218 9 315 57 418 34 73 105 153 180 205 105 71 124 112 71 151 -14 10 -101 39
-194 64 -189 51 -262 79 -276 106 -23 42 -12 66 65 135 177 157 264 377 237
594 -28 228 -147 460 -482 945 -77 110 -161 225 -189 256 -239 268 -615 277
-1144 28 -304 -143 -299 -142 -448 -74 -126 58 -200 75 -325 75 -134 0 -225
-24 -389 -103 l-130 -62 -115 0 c-127 0 -149 7 -280 85 -117 69 -229 87 -354
54 -111 -29 -197 -17 -371 54 -287 116 -594 189 -870 207 -49 3 -110 7 -135 9
-25 2 -74 0 -110 -4z m367 -195 c358 -49 577 -113 785 -231 119 -68 148 -71
300 -40 263 54 346 28 428 -133 15 -31 40 -96 55 -144 43 -138 76 -152 132
-55 96 164 278 297 477 348 164 42 313 34 461 -25 125 -50 174 -95 190 -175
12 -56 46 -92 141 -144 327 -181 544 -389 779 -746 96 -145 128 -180 167 -180
18 0 2 118 -28 200 -14 41 -87 195 -160 343 -74 147 -129 267 -124 267 29 0
85 -43 192 -147 64 -62 124 -113 132 -113 17 0 30 51 20 82 -10 32 -178 349
-235 445 -58 97 -139 174 -205 197 -146 50 -291 -12 -399 -169 -43 -62 -76
-79 -129 -64 -67 18 -86 67 -43 106 35 32 223 142 322 189 210 98 379 137 590
137 161 0 228 -18 282 -75 43 -46 373 -520 451 -647 82 -136 153 -282 191
-398 36 -105 40 -190 15 -287 -21 -80 -98 -229 -136 -261 -73 -61 -192 -6
-320 149 -59 71 -93 96 -130 96 -76 0 -85 -28 -48 -167 48 -182 73 -245 144
-356 88 -137 143 -282 155 -403 14 -149 -22 -304 -71 -304 -27 0 -43 10 -148
94 -99 79 -183 117 -268 124 l-67 5 54 -37 c240 -163 396 -407 461 -719 77
-373 41 -725 -106 -1037 -55 -117 -192 -326 -205 -313 -5 5 -12 59 -15 119 -5
109 -17 164 -37 164 -21 0 -47 -34 -47 -60 0 -52 -40 -186 -81 -269 -72 -146
-199 -248 -350 -281 -35 -8 -97 -11 -160 -8 -138 7 -231 39 -486 167 -290 145
-447 195 -531 167 -23 -8 -21 -10 25 -40 26 -18 98 -60 160 -94 61 -33 131
-73 155 -88 50 -31 128 -95 128 -104 0 -10 -202 -99 -299 -131 -226 -77 -467
-119 -499 -87 -18 18 -15 41 17 138 46 135 64 279 56 437 l-7 133 31 31 c31
31 33 31 109 27 95 -6 205 -42 442 -145 288 -125 455 -174 603 -175 213 -2
327 98 401 353 38 135 50 224 51 385 0 163 -6 184 -51 184 -20 0 -31 -16 -73
-101 -116 -232 -250 -358 -430 -399 -84 -20 -266 -8 -376 25 -175 52 -195 75
-205 238 -6 107 -7 110 -38 138 -25 22 -42 29 -74 29 -40 0 -47 -4 -120 -82
-76 -82 -78 -83 -125 -83 -39 0 -59 7 -103 37 -140 94 -264 235 -335 381 -60
124 -73 186 -91 437 -11 149 -20 222 -30 238 -18 27 -59 29 -74 3 -5 -11 -14
-127 -19 -258 -11 -273 -25 -346 -93 -483 -33 -68 -59 -102 -128 -171 -74 -75
-101 -94 -192 -138 -74 -37 -123 -54 -163 -58 l-56 -6 -89 93 c-84 88 -90 92
-121 86 -82 -16 -109 -64 -109 -188 0 -98 -18 -142 -70 -173 -30 -17 -52 -20
-160 -19 -142 0 -242 23 -342 76 -112 60 -214 197 -268 360 -14 43 -31 75 -47
88 l-26 20 -19 -27 c-46 -70 -47 -150 -2 -351 28 -127 96 -331 125 -378 29
-48 105 -113 157 -137 34 -15 75 -22 147 -25 115 -5 203 13 365 74 147 56 303
106 329 106 59 1 66 -66 17 -179 -81 -191 -126 -263 -162 -263 -34 0 -113 39
-125 62 -22 42 -7 71 61 116 70 47 77 57 56 85 -13 16 -20 17 -73 8 -60 -11
-231 -89 -363 -166 -117 -68 -187 -88 -295 -83 -75 3 -101 9 -156 34 -171 80
-331 309 -373 533 -17 88 -37 144 -57 156 -8 5 -21 -2 -36 -19 -17 -21 -23
-39 -23 -79 -1 -63 -14 -135 -28 -149 -25 -25 -210 279 -261 431 -64 187 -89
396 -72 596 41 476 219 772 565 936 l81 38 -57 1 c-80 0 -161 -28 -298 -105
-149 -83 -174 -91 -201 -64 -13 13 -19 33 -19 64 0 50 -16 89 -49 119 -27 24
-26 34 5 124 14 41 48 170 75 286 72 309 96 372 207 554 67 109 106 205 137
336 32 139 81 232 161 311 74 73 171 129 209 119 36 -9 59 -47 52 -84 -4 -16
-77 -172 -162 -346 -90 -182 -155 -325 -153 -337 2 -17 50 32 224 228 232 261
396 428 551 559 105 88 123 112 123 159 0 38 -23 64 -85 95 -159 80 -380 71
-566 -23 -206 -103 -332 -241 -419 -460 -92 -233 -165 -377 -223 -442 -27 -30
-72 -30 -92 0 -39 60 -58 141 -58 247 -1 93 3 116 31 199 85 246 317 645 433
745 117 100 232 114 556 71z m-1202 -1919 c42 -18 58 -46 46 -79 -19 -50 -88
-50 -188 -1 -40 20 -73 37 -73 39 0 3 109 42 135 48 35 8 45 7 80 -7z m6086
-265 c35 -10 77 -22 93 -25 27 -7 25 -9 -45 -42 -116 -56 -186 -54 -216 6 -21
42 14 78 78 79 15 1 55 -8 90 -18z m-321 -652 c12 -22 -3 -67 -26 -76 -11 -4
-22 1 -30 12 -17 24 -18 82 -1 88 20 6 47 -4 57 -24z m-5916 -208 c28 -31 32
-85 8 -109 -29 -29 -191 -46 -215 -22 -20 18 9 54 81 101 83 54 101 58 126 30z
m6239 -303 c12 -6 49 -32 82 -57 l60 -46 -40 -7 c-22 -4 -66 -7 -97 -7 -47 -1
-62 3 -87 25 -71 59 -1 137 82 92z m-4033 -619 c56 -78 94 -217 68 -251 -38
-49 -112 -19 -124 50 -3 20 -12 59 -20 86 -38 133 10 206 76 115z m1661 -16
c13 -33 -4 -161 -28 -206 -13 -25 -64 -57 -93 -57 -5 0 -19 9 -30 20 -51 51 1
213 82 253 46 23 57 21 69 -10z m-603 -59 c79 -39 84 -51 83 -201 0 -71 3
-190 8 -266 18 -308 -28 -476 -177 -638 -79 -86 -158 -122 -276 -127 -105 -4
-146 11 -183 66 -47 71 -41 166 22 353 34 102 43 170 26 197 -6 10 -26 -20
-69 -100 -103 -195 -121 -235 -143 -315 -23 -87 -52 -123 -98 -123 -65 0 -146
46 -182 104 -28 43 -21 99 41 330 81 301 197 645 229 677 33 33 109 51 169 39
70 -12 77 -26 77 -140 0 -54 4 -102 8 -106 16 -16 43 13 77 82 48 95 65 118
111 150 85 58 181 65 277 18z m-2977 -97 c20 -43 -21 -97 -73 -97 -15 0 -3 66
17 96 20 30 42 31 56 1z m5474 -467 c14 -15 44 -110 45 -141 0 -14 -81 15
-105 37 -30 27 -34 78 -8 106 21 23 45 23 68 -2z m-4771 -292 c35 -50 16 -96
-57 -138 -77 -44 -80 -42 -75 41 3 63 7 74 31 95 36 31 81 31 101 2z m3642
-325 c14 -15 15 -30 9 -107 -3 -50 -10 -109 -13 -130 l-7 -40 -41 47 c-51 58
-99 178 -84 207 6 11 18 24 28 29 27 16 89 13 108 -6z m-2671 -199 c20 -8 45
-56 45 -86 0 -13 -16 -57 -36 -98 l-36 -75 -19 65 c-22 74 -24 138 -7 175 11
25 24 30 53 19z m1245 -231 c19 -24 21 -36 16 -83 -4 -30 -10 -58 -15 -63 -8
-8 -65 66 -76 101 -20 67 33 98 75 45z"/>
<path d="M3360 5098 c-81 -228 -102 -269 -159 -321 -92 -83 -203 -71 -396 42
-82 48 -154 81 -180 81 -21 0 -27 -35 -16 -93 16 -75 16 -154 0 -173 -12 -14
-32 -15 -170 -9 -147 7 -159 6 -205 -14 -63 -28 -105 -69 -159 -156 -52 -83
-75 -143 -75 -195 0 -37 6 -47 78 -141 39 -52 43 -101 9 -140 -39 -46 -138
-121 -295 -223 -83 -55 -152 -103 -152 -108 0 -18 208 20 304 56 143 54 261
147 369 291 168 222 394 384 697 495 154 57 400 129 418 123 9 -4 31 -16 47
-28 75 -55 105 -60 318 -57 258 3 283 -6 345 -129 l27 -54 56 0 c49 0 64 -5
113 -39 l57 -39 -38 -21 c-41 -23 -53 -58 -33 -96 9 -17 19 -20 48 -18 29 2
41 10 57 35 11 18 23 32 26 33 4 0 69 -54 145 -120 181 -159 291 -240 394
-292 82 -42 88 -43 180 -43 153 0 154 6 11 80 -148 78 -181 101 -181 125 0 10
16 51 35 91 76 162 48 321 -82 460 -89 95 -215 114 -353 55 -158 -68 -225 -66
-306 7 -61 56 -61 83 0 205 38 75 44 96 36 112 -19 36 -63 24 -233 -64 -245
-126 -344 -143 -423 -74 -49 44 -75 101 -122 270 -40 140 -97 288 -112 288 -4
0 -40 -91 -80 -202z"/>
<path d="M5914 5175 c-7 -18 13 -45 33 -45 19 0 28 27 13 45 -16 19 -39 19
-46 0z"/>
<path d="M2930 4440 c-11 -11 -20 -33 -20 -48 0 -63 84 -88 127 -38 29 34 29
51 -2 81 -30 31 -77 33 -105 5z"/>
<path d="M3799 4411 c-31 -32 -34 -46 -19 -85 13 -35 76 -54 116 -35 59 29 67
107 13 134 -43 23 -77 18 -110 -14z"/>
<path d="M3150 4364 c-6 -14 -10 -56 -10 -93 l0 -67 -53 -22 c-63 -26 -110
-72 -127 -125 -6 -20 -15 -97 -19 -170 -5 -91 -13 -142 -24 -164 -22 -42 -21
-55 6 -81 59 -56 208 -73 290 -33 85 41 136 120 157 244 26 147 -4 217 -93
217 -48 0 -59 -6 -76 -38 -10 -19 -9 -38 5 -99 l18 -75 -23 -19 c-56 -46 -112
-4 -119 89 -3 48 0 63 20 92 50 74 200 127 331 116 215 -18 339 -58 407 -132
46 -50 52 -94 22 -154 -22 -44 -54 -61 -96 -49 -48 14 -56 32 -49 115 5 68 4
74 -20 98 -55 55 -99 23 -117 -84 -20 -121 17 -238 99 -312 65 -60 176 -76
259 -38 52 24 59 39 38 90 -23 57 -19 116 11 185 42 99 72 188 73 218 0 40
-37 73 -93 81 -26 4 -111 28 -190 54 l-142 47 -147 0 -146 0 -70 68 c-76 73
-106 83 -122 41z"/>
<path d="M2752 4287 c-46 -49 -14 -117 53 -117 41 0 85 36 85 70 0 60 -95 92
-138 47z"/>
<path d="M2476 4061 c-8 -13 4 -41 18 -41 6 0 18 5 26 10 13 8 12 11 -5 24
-23 18 -32 19 -39 7z"/>
<path d="M2715 4040 c-51 -56 12 -149 79 -119 69 32 46 139 -29 139 -19 0 -39
-8 -50 -20z"/>
<path d="M4176 3924 c-41 -40 4 -105 58 -85 47 18 27 101 -24 101 -10 0 -26
-7 -34 -16z"/>
<path d="M3456 3888 c-9 -21 -16 -49 -16 -63 0 -32 26 -95 38 -95 6 0 17 19
27 42 19 48 14 91 -15 128 l-19 25 -15 -37z"/>
<path d="M4430 3885 c-19 -23 -4 -64 27 -71 14 -4 33 -2 42 3 20 13 26 50 11
69 -16 18 -64 18 -80 -1z"/>
</g>
</svg>
