<svg aria-hidden="true" style="position: absolute; width: 0; height: 0; overflow: hidden;" version="1.1" xmlns="http://www.w3.org/2000/svg" xmlns:xlink="http://www.w3.org/1999/xlink">
<defs>
<symbol id="icon-fb" viewBox="0 0 32 32">
  <path d="M23.23 16.56l0.863-5.328h-5.395v-3.457c0-1.458 0.754-2.878 3.17-2.878h2.453v-4.536c0 0-2.226-0.36-4.354-0.36-4.443 0-7.347 2.552-7.347 7.171v4.061h-4.939v5.328h4.939v12.88h6.078v-12.88h4.532z"></path>
</symbol>
<symbol id="icon-inst" viewBox="0 0 32 32">
  <path d="M2.343 2.343c-1.5 1.5-2.343 3.535-2.343 5.657v16c0 2.122 0.843 4.157 2.343 5.657s3.535 2.343 5.657 2.343h16c2.122 0 4.157-0.843 5.657-2.343s2.343-3.535 2.343-5.657v-16c0-2.122-0.843-4.157-2.343-5.657s-3.535-2.343-5.657-2.343h-16c-2.122 0-4.157 0.843-5.657 2.343zM10.343 10.343c1.5-1.5 3.535-2.343 5.657-2.343s4.157 0.843 5.657 2.343c1.5 1.5 2.343 3.535 2.343 5.657s-0.843 4.157-2.343 5.657c-1.5 1.5-3.535 2.343-5.657 2.343s-4.157-0.843-5.657-2.343c-1.5-1.5-2.343-3.535-2.343-5.657s0.843-4.157 2.343-5.657zM25.931 8.331c-0.3 0.3-0.707 0.469-1.131 0.469s-0.831-0.169-1.131-0.469c-0.3-0.3-0.469-0.707-0.469-1.131s0.169-0.831 0.469-1.131c0.3-0.3 0.707-0.469 1.131-0.469s0.831 0.169 1.131 0.469c0.3 0.3 0.469 0.707 0.469 1.131s-0.169 0.831-0.469 1.131z"></path>
</symbol>
<symbol id="icon-mail" viewBox="0 0 32 32">
  <path d="M11.475 18.934l4.528 3.096 4.365-3.011 9.784 9.653c-0.258 0.083-0.533 0.128-0.819 0.128h-26.666c-0.352 0-0.688-0.069-0.997-0.192l9.805-9.674zM32 11.002v15.131c0 0.395-0.086 0.77-0.24 1.107l-9.59-9.462 9.83-6.776zM0 11.086l9.667 6.611-9.498 9.373c-0.113-0.3-0.17-0.617-0.17-0.938v-15.046zM29.333 4.8c1.472 0 2.667 1.194 2.667 2.667v0.938l-16.003 11.032-15.997-10.941v-1.029c0-1.472 1.194-2.667 2.667-2.667h26.666z"></path>
</symbol>
<symbol id="icon-twitter" viewBox="0 0 32 32">
  <path d="M28.711 9.482c0.020 0.284 0.020 0.569 0.020 0.853 0 8.67-6.599 18.66-18.66 18.66-3.716 0-7.168-1.076-10.071-2.944 0.528 0.061 1.036 0.081 1.584 0.081 3.066 0 5.888-1.036 8.142-2.802-2.883-0.061-5.3-1.949-6.132-4.548 0.406 0.061 0.812 0.102 1.239 0.102 0.589 0 1.178-0.081 1.726-0.223-3.005-0.609-5.259-3.249-5.259-6.437v-0.081c0.873 0.487 1.888 0.792 2.964 0.832-1.766-1.178-2.924-3.188-2.924-5.462 0-1.218 0.325-2.335 0.893-3.31 3.228 3.98 8.081 6.579 13.523 6.863-0.102-0.487-0.162-0.995-0.162-1.502 0-3.614 2.924-6.558 6.558-6.558 1.888 0 3.594 0.792 4.792 2.071 1.482-0.284 2.903-0.832 4.162-1.584-0.487 1.523-1.523 2.802-2.883 3.614 1.32-0.142 2.599-0.508 3.777-1.015-0.893 1.299-2.010 2.457-3.289 3.391v0z"></path>
</symbol>
</defs>
</svg>
