<svg aria-hidden="true" style="position: absolute; width: 0; height: 0; overflow: hidden;" version="1.1" xmlns="http://www.w3.org/2000/svg" xmlns:xlink="http://www.w3.org/1999/xlink">
<defs>
<symbol id="icon-fb" viewBox="0 0 32 32">
  <path d="M23.23 16.56l0.863-5.328h-5.395v-3.457c0-1.458 0.754-2.878 3.17-2.878h2.453v-4.536c0 0-2.226-0.36-4.354-0.36-4.443 0-7.347 2.552-7.347 7.171v4.061h-4.939v5.328h4.939v12.88h6.078v-12.88h4.532z"></path>
</symbol>
<symbol id="icon-inst" viewBox="0 0 32 32">
  <path d="M2.343 2.343c-1.5 1.5-2.343 3.535-2.343 5.657v16c0 2.122 0.843 4.157 2.343 5.657s3.535 2.343 5.657 2.343h16c2.122 0 4.157-0.843 5.657-2.343s2.343-3.535 2.343-5.657v-16c0-2.122-0.843-4.157-2.343-5.657s-3.535-2.343-5.657-2.343h-16c-2.122 0-4.157 0.843-5.657 2.343zM10.343 10.343c1.5-1.5 3.535-2.343 5.657-2.343s4.157 0.843 5.657 2.343c1.5 1.5 2.343 3.535 2.343 5.657s-0.843 4.157-2.343 5.657c-1.5 1.5-3.535 2.343-5.657 2.343s-4.157-0.843-5.657-2.343c-1.5-1.5-2.343-3.535-2.343-5.657s0.843-4.157 2.343-5.657zM25.931 8.331c-0.3 0.3-0.707 0.469-1.131 0.469s-0.831-0.169-1.131-0.469c-0.3-0.3-0.469-0.707-0.469-1.131s0.169-0.831 0.469-1.131c0.3-0.3 0.707-0.469 1.131-0.469s0.831 0.169 1.131 0.469c0.3 0.3 0.469 0.707 0.469 1.131s-0.169 0.831-0.469 1.131z"></path>
</symbol>
<symbol id="icon-mail" viewBox="0 0 32 32">
  <path d="M11.475 18.934l4.528 3.096 4.365-3.011 9.784 9.653c-0.258 0.083-0.533 0.128-0.819 0.128h-26.666c-0.352 0-0.688-0.069-0.997-0.192l9.805-9.674zM32 11.002v15.131c0 0.395-0.086 0.77-0.24 1.107l-9.59-9.462 9.83-6.776zM0 11.086l9.667 6.611-9.498 9.373c-0.113-0.3-0.17-0.617-0.17-0.938v-15.046zM29.333 4.8c1.472 0 2.667 1.194 2.667 2.667v0.938l-16.003 11.032-15.997-10.941v-1.029c0-1.472 1.194-2.667 2.667-2.667h26.666z"></path>
</symbol>
<symbol id="icon-twitter" viewBox="0 0 32 32">
  <path d="M28.711 9.482c0.020 0.284 0.020 0.569 0.020 0.853 0 8.67-6.599 18.66-18.66 18.66-3.716 0-7.168-1.076-10.071-2.944 0.528 0.061 1.036 0.081 1.584 0.081 3.066 0 5.888-1.036 8.142-2.802-2.883-0.061-5.3-1.949-6.132-4.548 0.406 0.061 0.812 0.102 1.239 0.102 0.589 0 1.178-0.081 1.726-0.223-3.005-0.609-5.259-3.249-5.259-6.437v-0.081c0.873 0.487 1.888 0.792 2.964 0.832-1.766-1.178-2.924-3.188-2.924-5.462 0-1.218 0.325-2.335 0.893-3.31 3.228 3.98 8.081 6.579 13.523 6.863-0.102-0.487-0.162-0.995-0.162-1.502 0-3.614 2.924-6.558 6.558-6.558 1.888 0 3.594 0.792 4.792 2.071 1.482-0.284 2.903-0.832 4.162-1.584-0.487 1.523-1.523 2.802-2.883 3.614 1.32-0.142 2.599-0.508 3.777-1.015-0.893 1.299-2.010 2.457-3.289 3.391v0z"></path>
</symbol>
<symbol id="icon-phone-call" viewBox="0 0 32 32">
  <path d="M29.597 31.966c-3.719-0.302-7.226-1.231-10.522-2.788-3.294-1.557-6.188-3.59-8.683-6.099s-4.527-5.411-6.099-8.707c-1.572-3.295-2.494-6.803-2.767-10.522-0.061-0.634 0.128-1.186 0.566-1.654s0.975-0.703 1.611-0.703h6.166c0.515 0 0.961 0.152 1.339 0.455 0.377 0.302 0.627 0.71 0.749 1.223l1.088 4.852c0.059 0.363 0.044 0.726-0.046 1.088-0.091 0.363-0.273 0.681-0.544 0.953l-4.399 4.443c1.27 2.298 2.827 4.369 4.671 6.212 1.844 1.844 3.915 3.401 6.212 4.671l4.488-4.353c0.303-0.302 0.636-0.491 0.999-0.566s0.71-0.083 1.043-0.022l4.852 1.043c0.514 0.12 0.922 0.377 1.225 0.771 0.302 0.393 0.453 0.847 0.453 1.36v6.166c0 0.817-0.287 1.392-0.862 1.724s-1.088 0.483-1.541 0.453z"></path>
</symbol>
<symbol id="icon-geo" viewBox="0 0 32 32">
  <path d="M16 16.081c0.906 0 1.679-0.32 2.319-0.96s0.96-1.414 0.96-2.321c0-0.906-0.32-1.679-0.96-2.319s-1.413-0.96-2.319-0.96c-0.906 0-1.679 0.32-2.319 0.96s-0.96 1.413-0.96 2.319c0 0.908 0.32 1.681 0.96 2.321s1.413 0.96 2.319 0.96zM16 32c-4.293-3.706-7.499-7.106-9.619-10.2-2.121-3.094-3.181-5.987-3.181-8.681 0-4.027 1.28-7.221 3.84-9.581 2.56-2.359 5.547-3.539 8.96-3.539s6.4 1.18 8.96 3.539c2.56 2.36 3.84 5.554 3.84 9.581 0 2.693-1.060 5.587-3.181 8.681-2.12 3.094-5.326 6.494-9.619 10.2z"></path>
</symbol>
<symbol id="icon-search" viewBox="0 0 24 24">
  <path d="M19.6 21L13.3 14.7C12.8 15.1 12.225 15.4167 11.575 15.65C10.925 15.8833 10.2333 16 9.5 16C7.68333 16 6.146 15.371 4.888 14.113C3.62933 12.8543 3 11.3167 3 9.5C3 7.68333 3.62933 6.14567 4.888 4.887C6.146 3.629 7.68333 3 9.5 3C11.3167 3 12.8543 3.629 14.113 4.887C15.371 6.14567 16 7.68333 16 9.5C16 10.2333 15.8833 10.925 15.65 11.575C15.4167 12.225 15.1 12.8 14.7 13.3L21 19.6L19.6 21ZM9.5 14C10.75 14 11.8127 13.5627 12.688 12.688C13.5627 11.8127 14 10.75 14 9.5C14 8.25 13.5627 7.18733 12.688 6.312C11.8127 5.43733 10.75 5 9.5 5C8.25 5 7.18733 5.43733 6.312 6.312C5.43733 7.18733 5 8.25 5 9.5C5 10.75 5.43733 11.8127 6.312 12.688C7.18733 13.5627 8.25 14 9.5 14Z"/>
</symbol>
<symbol id="icon-chevron" viewBox="0 0 24 24">
  <path d="M15.7071 5.29289C16.0976 5.68342 16.0976 6.31658 15.7071 6.70711L10.4142 12L15.7071 17.2929C16.0976 17.6834 16.0976 18.3166 15.7071 18.7071C15.3166 19.0976 14.6834 19.0976 14.2929 18.7071L8.29289 12.7071C7.90237 12.3166 7.90237 11.6834 8.29289 11.2929L14.2929 5.29289C14.6834 4.90237 15.3166 4.90237 15.7071 5.29289Z"/>
</symbol>
<symbol id="icon-close" viewBox="0 0 32 32">
  <path d="M17.88 16l5.733-5.72c0.251-0.251 0.392-0.592 0.392-0.947s-0.141-0.696-0.392-0.947c-0.251-0.251-0.592-0.392-0.947-0.392s-0.696 0.141-0.947 0.392l-5.72 5.733-5.72-5.733c-0.251-0.251-0.592-0.392-0.947-0.392s-0.696 0.141-0.947 0.392c-0.251 0.251-0.392 0.592-0.392 0.947s0.141 0.696 0.392 0.947l5.733 5.72-5.733 5.72c-0.125 0.124-0.224 0.271-0.292 0.434s-0.103 0.337-0.103 0.513 0.035 0.35 0.103 0.513c0.068 0.162 0.167 0.31 0.292 0.434 0.124 0.125 0.271 0.224 0.434 0.292s0.337 0.102 0.513 0.102c0.176 0 0.35-0.035 0.513-0.102s0.31-0.167 0.434-0.292l5.72-5.733 5.72 5.733c0.124 0.125 0.271 0.224 0.434 0.292s0.337 0.102 0.513 0.102c0.176 0 0.35-0.035 0.513-0.102s0.31-0.167 0.434-0.292c0.125-0.124 0.224-0.271 0.292-0.434s0.102-0.337 0.102-0.513-0.035-0.35-0.102-0.513c-0.068-0.163-0.167-0.31-0.292-0.434l-5.733-5.72z"></path>
</symbol>
<symbol id="icon-burger-open" viewBox="0 0 32 32">
  <path d="M6.4 21.333c0 0.589 0.478 1.067 1.067 1.067h17.067c0.589 0 1.067-0.478 1.067-1.067v0c0-0.589-0.478-1.067-1.067-1.067h-17.067c-0.589 0-1.067 0.478-1.067 1.067v0z"></path>
  <path d="M6.4 16c0 0.589 0.478 1.067 1.067 1.067h17.067c0.589 0 1.067-0.478 1.067-1.067v0c0-0.589-0.478-1.067-1.067-1.067h-17.067c-0.589 0-1.067 0.478-1.067 1.067v0z"></path>
  <path d="M7.467 9.6c-0.589 0-1.067 0.478-1.067 1.067v0c0 0.589 0.478 1.067 1.067 1.067h17.067c0.589 0 1.067-0.478 1.067-1.067v0c0-0.589-0.478-1.067-1.067-1.067h-17.067z"></path>
</symbol>
<symbol id="icon-burger-close" viewBox="0 0 32 32">
  <path d="M8.8 23.2c0.442 0.442 1.158 0.442 1.6 0l12.8-12.8c0.442-0.442 0.442-1.158 0-1.6v0c-0.442-0.442-1.158-0.442-1.6 0l-12.8 12.8c-0.442 0.442-0.442 1.158 0 1.6v0z"></path>
  <path d="M8.8 8.8c-0.442 0.442-0.442 1.158 0 1.6l12.8 12.8c0.442 0.442 1.158 0.442 1.6 0v0c0.442-0.442 0.442-1.158 0-1.6l-12.8-12.8c-0.442-0.442-1.158-0.442-1.6 0v0z"></path>
</symbol>
</defs>
</svg>


