<svg width="204" height="204" viewBox="0 0 204 204" fill="none" xmlns="http://www.w3.org/2000/svg">
<path fill-rule="evenodd" clip-rule="evenodd" d="M21.639 142.328C13.921 142.658 13.392 142.118 16.148 136.1C18.395 131.195 19.594 126.482 16.962 121.346C15.478 118.45 16.424 115.967 18.667 113.692C19.452 112.896 20.778 111.437 19.404 110.246C18.395 109.37 17.296 110.558 16.361 111.213C13.479 113.231 3.76601 111.441 1.53201 108.557C0.756009 107.555 0.849004 106.755 1.68 105.959C2.279 105.384 2.88101 104.759 3.59701 104.368C10.992 100.323 14.556 94.437 14.447 85.69C14.401 82.004 14.054 79.326 11.372 76.904C9.77001 75.457 8.37301 73.782 6.91201 72.184C5.37001 70.498 5.50901 69.25 7.91301 68.678C11.149 67.908 14.4 67.199 17.621 66.372C23.13 64.958 24.96 59.485 21.52 55.06C17.166 49.457 16.341 42.916 18.897 36.694C21.967 29.219 25.06 21.657 30.156 15.111C34.113 10.029 39.072 7.76604 45.274 8.01904C55.847 8.44904 66.066 10.686 75.786 14.866C78.8 16.163 81.524 17.021 84.856 15.986C88.649 14.807 92.418 15.339 95.84 17.627C100.525 20.759 105.386 21.196 110.403 18.385C117.942 14.16 125.507 13.739 133.21 18.049C135.412 19.281 137.539 18.624 139.82 17.504C145.78 14.579 151.717 11.606 158.414 10.433C168.677 8.63504 175.231 11.134 181.029 19.735C186.87 28.399 193.474 36.629 196.788 46.763C199.407 54.773 196.91 63.573 190.296 68.68C187.211 71.062 188.262 72.58 191.002 73.594C194.269 74.803 197.727 75.484 201.076 76.48C203.63 77.239 204.589 78.501 202.048 80.538C201.918 80.642 201.811 80.782 201.668 80.862C192.131 86.284 193.378 95.391 193.642 104.194C193.705 106.279 194.809 107.535 196.346 108.68C198.348 110.173 200.301 111.734 202.219 113.333C204.719 115.419 204.46 117.193 201.494 118.559C201.191 118.698 200.899 118.936 200.587 118.966C186.603 120.303 186.08 132.206 183.151 141.821C182.058 145.406 185.214 149.018 186.225 152.685C187.716 158.1 187.269 158.943 181.863 157.532C175.189 155.79 169.71 157.804 163.352 159.997C154.276 163.127 150.54 168.002 150.522 177.099C150.514 181.149 147.674 180.313 145.832 178.454C140.212 172.786 134.2 173.067 126.762 174.753C119.7 176.354 114.773 178.634 111.478 185.404C108.406 191.718 107.522 191.427 103.936 185.602C103.151 184.327 102.221 183.098 101.681 181.722C100.324 178.263 97.883 176.85 94.26 177.31C94.096 177.331 93.913 177.353 93.763 177.303C84.863 174.349 77.349 175.934 71.347 183.624C69.784 185.627 67.789 185.209 67.001 182.416C66.775 181.615 66.422 180.804 66.419 179.995C66.375 170.93 60.42 166.961 52.923 164.447C49.346 163.248 46.136 165.332 42.792 166.117C39.981 166.776 36.797 169.335 34.408 166.873C32.304 164.703 34.194 161.345 35.217 158.881C37.145 154.234 35.985 151.112 31.929 148.452C28.378 146.124 26.72 140.435 21.639 142.328Z" fill="#10647A"/>
<path fill-rule="evenodd" clip-rule="evenodd" d="M73.1146 147.317C70.4386 147.137 68.0896 148.27 65.7656 149.502C64.1506 150.357 62.4656 151.106 60.9316 152.089C48.8116 159.862 40.0976 149.754 37.0596 140.35C36.3136 138.039 36.7086 135.348 34.7306 133.22C31.9096 135.151 34.1416 138.367 32.2616 141.15C24.2436 131.712 21.5636 120.851 22.8276 109.229C24.1306 97.2489 29.0626 87.1359 41.6386 82.5349C36.6446 81.8179 32.9846 84.4739 29.2396 86.6239C26.5226 88.1839 24.4216 89.0089 24.7266 84.6419C24.8686 82.6149 22.1546 81.8629 22.6986 80.5689C26.2186 72.1899 25.8886 62.5259 31.2026 54.8099C33.5286 51.4319 34.9926 47.8379 35.7486 43.8469C36.6996 38.8339 39.4576 35.0119 43.8526 32.4049C44.8586 31.8079 45.9886 31.1429 47.1176 31.9099C48.5286 32.8679 48.1156 34.3269 47.5426 35.5149C45.0926 40.6059 42.5126 45.6349 40.0476 50.7189C39.4966 51.8539 38.3646 52.8009 38.7376 54.8309C42.5266 50.5429 46.0976 46.5479 49.6166 42.5069C53.5606 37.9769 57.9246 33.9079 62.5716 30.0999C66.3676 26.9889 65.9426 24.9749 61.3786 23.1209C51.9436 19.2869 38.7926 25.6699 34.3726 36.2809C32.5206 40.7269 31.0866 45.3639 28.2396 49.3419C27.5806 50.2619 27.1576 51.6219 25.7106 51.3499C24.3826 51.0999 24.1596 49.7859 23.7366 48.6999C21.9056 43.9979 22.9246 39.5009 24.7796 35.1159C27.3816 28.9629 30.6206 23.1389 34.6546 17.8129C39.6256 11.2509 46.7826 13.1539 53.1656 13.9109C61.4086 14.8879 69.5616 16.8449 76.8176 21.3069C78.7786 22.5129 80.7506 22.6199 83.0236 22.0429C93.2046 19.4599 95.5896 20.8369 98.6296 30.5479C98.9526 31.5809 98.9606 33.1069 100.47 33.1919C101.674 33.2599 101.846 31.9559 102.341 31.1379C107.803 22.1109 120.236 17.9839 129.771 22.0459C132.227 23.0919 134.617 24.0609 135.111 27.3129C135.398 29.1969 137.191 30.3159 138.829 31.1489C149.539 36.5899 157.182 45.1199 163.327 55.2039C164.078 56.4359 164.681 57.9039 166.93 58.4649C167.288 53.8479 165.046 50.2359 163.278 46.5229C161.522 42.8319 159.667 39.1869 157.337 34.4719C162.335 36.3039 163.761 40.6549 167.298 42.3769C168.412 40.5399 167.459 39.2079 166.814 37.9659C164.676 33.8519 162.583 29.6989 160.161 25.7519C155.965 18.9149 148.126 18.8729 143.582 25.5459C142.634 26.9389 141.907 28.5649 139.791 28.0629C138.823 27.8329 137.764 27.4819 137.464 26.3979C137.201 25.4459 138.004 24.8989 138.694 24.4439C147.631 18.5509 157.076 14.3059 168.16 15.4379C170.414 15.6679 172.543 16.5049 173.778 18.3449C180.253 27.9859 187.912 36.8949 191.863 48.1029C193.864 53.7769 191.938 58.5259 189.066 63.1449C187.752 65.2579 185.822 65.0869 183.803 64.0449C181.351 62.7789 179.693 60.7259 178.043 58.6109C176.964 57.2259 175.371 56.1589 173.723 57.0559C172.362 57.7979 173.112 59.5099 173.43 60.7359C174.369 64.3399 175.116 67.7559 177.354 71.1929C180.888 76.6199 183.823 82.9219 182.066 90.0439C181.365 92.8829 180.566 93.6679 177.878 91.4579C174.657 88.8089 171.398 85.7959 166.225 86.1999C177.298 92.9249 181.36 103.242 182.293 115.33C183.221 127.339 180.127 138.024 172.21 147.937C171.126 144.821 172.683 141.639 170.79 139.22C168.97 139.638 169.366 141.031 169.199 142.082C167.15 154.936 157.129 160.589 144.949 155.805C139.217 153.553 134.163 149.826 128.172 148.158C126.463 147.681 124.798 146.722 121.72 147.764C126.597 151.497 132.118 152.81 136.175 157.122C129.392 160.675 122.322 162.987 114.771 163.835C112.856 164.05 111.908 163.331 112.75 161.184C114.791 155.984 115.477 150.645 114.85 145.027C114.468 141.6 116.371 140.406 119.919 141.121C127.362 142.62 133.743 146.805 140.939 148.97C153.836 152.85 159.269 149.789 161.874 136.597C162.592 132.959 162.644 129.318 162.465 125.655C162.418 124.69 162.265 123.486 160.965 123.48C160.002 123.475 159.797 124.527 159.472 125.277C154.077 137.713 145.533 141.248 132.665 136.567C129.856 135.546 129.452 133.615 129.436 131.116C129.422 128.978 129.654 126.374 127.065 125.622C124.84 124.976 123.42 126.977 122.253 128.537C120.057 131.471 117.828 130.795 115.408 128.986C108.368 123.725 103.974 117.011 103.697 107.972C103.615 105.311 103.42 102.651 103.171 100.001C103.08 99.0329 102.77 97.7999 101.598 97.7819C100.264 97.7609 100.301 99.0869 100.243 100.033C100.07 102.856 99.8596 105.685 99.8786 108.51C99.9576 119.77 94.1746 127.773 83.7186 130.824C81.4036 131.499 80.4676 129.803 79.2186 128.516C77.9926 127.254 77.0696 125.085 74.8896 125.795C72.7246 126.5 72.0166 128.604 72.2596 130.703C72.8876 136.117 70.0406 137.114 65.3916 136.946C56.0536 136.608 50.8216 133.011 47.8116 124.237C47.3946 123.023 47.4226 121.535 45.6196 120.996C43.3196 123.74 44.0706 126.991 44.5936 129.957C45.2256 133.539 46.3676 137.057 47.5606 140.508C49.4006 145.833 53.4706 148.095 59.1436 147.818C64.9726 147.533 69.8976 144.464 75.3536 143.078C76.4466 142.8 77.6226 141.802 78.6236 142.689C79.7656 143.703 79.2906 145.27 78.8266 146.448C77.9136 148.763 76.7476 150.983 75.6146 153.205C75.0286 154.354 74.5166 155.88 72.7296 155.227C71.5026 154.779 70.0266 154.306 69.6266 152.938C69.1386 151.266 70.8206 150.768 71.8066 149.988C72.4456 149.482 73.2396 149.17 73.9636 148.771C73.6796 148.285 73.3966 147.801 73.1146 147.317Z" fill="white"/>
<path fill-rule="evenodd" clip-rule="evenodd" d="M93.7167 149.012C91.5887 153.4 89.1697 156.725 87.9137 160.715C87.3227 162.595 87.5077 165.504 84.3147 165.186C81.0367 164.858 78.4157 162.139 78.9907 159.585C80.9327 150.955 83.5447 142.442 86.4967 134.096C87.2547 131.953 90.4837 130.985 93.0957 131.859C95.8587 132.784 94.1287 135.281 94.4507 137.07C94.5627 137.694 94.6987 138.313 94.8787 139.21C97.1037 138.259 96.9827 136.118 97.8697 134.693C100.446 130.549 105.623 129.36 109.457 132.233C110.078 132.698 110.979 133.525 110.905 134.071C109.743 142.661 113.458 151.647 108.669 159.96C106.397 163.904 103.633 166.93 98.8807 167.596C93.5757 168.34 90.9037 165.817 91.6577 160.526C91.9117 158.737 92.5927 157.007 93.0867 155.253C93.5657 153.551 94.8777 152.011 93.7167 149.012Z" fill="white"/>
<path fill-rule="evenodd" clip-rule="evenodd" d="M126.149 132.046C125.48 133.981 125.928 136.855 123.006 137.438C121.463 137.747 120.565 136.281 120.868 134.833C121.375 132.414 122.202 129.783 124.917 129.213C126.386 128.903 126.019 130.817 126.149 132.046Z" fill="white"/>
<path fill-rule="evenodd" clip-rule="evenodd" d="M78.0846 137.486C76.5566 137.4 75.9086 136.191 75.8026 134.866C75.6256 132.669 73.9306 130.536 75.4176 128.287C75.5346 128.11 76.4806 128.176 76.7116 128.429C78.6356 130.545 79.6506 133.103 79.8276 135.93C79.8786 136.763 79.1626 137.381 78.0846 137.486Z" fill="white"/>
<path fill-rule="evenodd" clip-rule="evenodd" d="M147.986 174.114C145.676 172.24 145.046 170.181 144.283 168.261C143.658 166.687 144.564 165.775 146.118 165.495C147.739 165.205 148.739 165.878 148.655 167.561C148.554 169.595 148.251 171.618 147.986 174.114Z" fill="white"/>
<path fill-rule="evenodd" clip-rule="evenodd" d="M6.77539 106.241C7.39139 104.193 9.41739 103.793 10.7394 102.651C12.0484 101.52 13.2464 101.815 13.7934 103.512C14.2764 105.009 13.8574 106.242 12.0934 106.382C10.3594 106.52 8.57039 107.377 6.77539 106.241Z" fill="white"/>
<path fill-rule="evenodd" clip-rule="evenodd" d="M198.642 78.4034C195.236 79.7514 193.257 81.7624 190.669 80.0824C189.733 79.4754 189.535 78.0964 190.382 77.5374C192.796 75.9444 194.962 77.9804 198.642 78.4034Z" fill="white"/>
<path fill-rule="evenodd" clip-rule="evenodd" d="M11.1748 71.0363C14.2768 69.8363 16.3938 68.6063 18.5558 70.2133C19.3688 70.8173 19.3318 72.2443 18.4168 72.7973C15.9538 74.2843 14.2568 72.0853 11.1748 71.0363Z" fill="white"/>
<path fill-rule="evenodd" clip-rule="evenodd" d="M38.2424 161.683C38.2094 159.387 37.5744 156.809 40.3504 155.829C41.2604 155.509 42.4174 156.459 42.5144 157.464C42.7844 160.26 40.1004 160.537 38.2424 161.683Z" fill="white"/>
<path fill-rule="evenodd" clip-rule="evenodd" d="M199.322 114.375C195.741 114.8 193.561 115.679 192.03 113.558C191.447 112.748 191.72 111.39 192.806 111.118C195.274 110.496 196.425 112.634 199.322 114.375Z" fill="white"/>
<path fill-rule="evenodd" clip-rule="evenodd" d="M69.581 179.416C68.805 176.344 67.639 174.257 68.925 172.072C69.376 171.307 70.631 171.732 71.063 172.411C72.585 174.804 70.851 176.556 69.581 179.416Z" fill="white"/>
<path fill-rule="evenodd" clip-rule="evenodd" d="M182.678 152.469C180.734 151.901 178.489 151.621 178.537 149.131C178.549 148.506 179.563 147.306 179.896 147.378C182.564 147.961 181.618 150.731 182.678 152.469Z" fill="white"/>
<path fill-rule="evenodd" clip-rule="evenodd" d="M106.725 183.268C105.601 181.595 103.644 180.274 104.661 177.906C104.757 177.682 105.683 177.518 105.948 177.709C108.113 179.269 106.999 181.313 106.725 183.268Z" fill="white"/>
<path fill-rule="evenodd" clip-rule="evenodd" d="M19.1377 137.319C19.3217 135.573 19.5167 134.281 20.9047 133.683C21.0327 133.627 21.7087 134.304 21.7507 134.684C21.9247 136.228 21.2047 137.145 19.1377 137.319Z" fill="white"/>
<path fill-rule="evenodd" clip-rule="evenodd" d="M183.556 97.0709C183.533 96.3989 183.526 95.6429 184.446 95.7069C185.393 95.7719 185.937 96.4949 185.797 97.3839C185.711 97.9259 185.173 98.7869 184.787 98.8159C183.693 98.8959 183.72 97.8449 183.556 97.0709Z" fill="white"/>
<path fill-rule="evenodd" clip-rule="evenodd" d="M128.096 79.7608C126.283 78.8288 125.025 76.5288 122.394 77.5838C121.741 77.8468 121.084 77.2618 120.878 76.5768C119.25 71.1608 114.888 71.7868 110.791 72.0988C107.407 72.3578 104.124 72.4738 101.198 70.3738C100.541 69.9028 99.9684 69.2428 99.0044 69.5258C86.9664 73.0678 75.1394 76.5728 67.2724 87.8188C62.7784 94.2418 55.7385 97.6008 47.4395 97.8498C50.7525 95.1218 54.7224 93.3338 57.9904 90.5708C60.6154 88.3498 63.7064 86.8828 59.5704 82.7588C56.6344 79.8318 59.2704 76.0918 61.0544 73.1488C62.9074 70.0918 65.8475 68.5868 69.5405 69.0418C77.1795 69.9818 77.1694 69.9978 75.8434 62.6758C75.7654 62.2458 75.9714 61.7638 76.0874 61.0428C79.4394 61.6218 81.8124 63.8808 84.6294 65.1468C90.3774 67.7278 93.9945 66.2568 96.2025 60.2038C97.4355 56.8238 98.6505 53.4358 100.204 49.1328C102.667 53.4348 103.249 57.3308 104.355 61.0168C106.001 66.5018 108.653 68.1368 114.019 66.2278C117.125 65.1218 119.957 63.2638 122.959 61.8398C123.943 61.3728 125.166 60.4638 126.136 61.6508C126.903 62.5888 125.859 63.4738 125.487 64.3458C124.611 66.4008 122.475 68.4938 124.639 70.6998C126.972 73.0788 129.904 73.2958 132.925 71.7278C137.164 69.5278 141.284 69.2518 144.725 73.1358C148.422 77.3088 149.12 82.7588 146.257 87.1948C144.884 89.3218 146.153 89.8758 147.421 90.5978C149.687 91.8898 152.039 93.0278 154.691 94.4058C148.047 96.4708 143.855 94.2148 129.722 81.4158C128.514 81.5198 127.948 80.9908 128.096 79.7608Z" fill="#10647A"/>
<path fill-rule="evenodd" clip-rule="evenodd" d="M99.6482 83.3703C97.0652 83.2683 94.6252 83.8593 92.4062 85.0243C89.8442 86.3693 89.0532 88.6193 90.1252 91.3433C90.5242 92.3563 91.4952 92.8263 92.5792 92.5883C93.8392 92.3103 93.9892 91.3603 93.6732 90.2713C93.0592 88.1543 92.1592 85.3623 95.4332 85.3273C98.9432 85.2893 98.6402 88.5103 98.3602 91.0063C97.6342 97.4853 93.5842 100.626 87.8892 99.2233C86.2142 98.8113 83.7842 97.5113 84.6342 96.2353C87.6152 91.7563 82.7862 83.9723 90.8042 81.8083C91.1042 81.7273 91.5932 81.4173 91.5802 81.2453C90.9152 72.2793 94.0332 76.6803 96.9242 79.6663C97.3932 80.1503 98.5682 80.3383 99.2742 80.1453C105.395 78.4693 110.542 82.3253 116.231 83.0713C118.642 83.3873 118.526 85.1773 117.968 87.2893C117.083 90.6433 113.905 93.4953 116.091 97.6533C116.856 99.1083 114.674 99.9603 113.137 100.189C110.057 100.65 107.495 99.6583 105.793 97.0433C103.857 94.0703 103.703 90.7953 104.793 87.4713C105.073 86.6173 105.844 86.1313 106.751 86.3093C108.163 86.5863 108.444 87.7133 108.489 88.9573C108.549 90.5993 107.137 92.8573 110.031 93.3803C111.587 93.6613 112.448 92.4393 112.876 91.1053C113.609 88.8143 112.46 87.3133 110.622 86.1193C107.261 83.9343 103.393 83.9083 99.6482 83.3703Z" fill="#10647A"/>
<path fill-rule="evenodd" clip-rule="evenodd" d="M112.604 74.625C114.055 74.82 115.223 75.426 115.01 77.104C114.81 78.679 113.599 79.29 112.129 79.158C110.867 79.045 109.87 78.33 109.93 76.953C109.999 75.378 111.075 74.685 112.604 74.625Z" fill="#10647A"/>
<path fill-rule="evenodd" clip-rule="evenodd" d="M84.1796 80.394C84.0106 81.773 83.1516 82.474 81.8496 82.479C80.5846 82.483 79.4936 81.954 79.5426 80.479C79.5866 79.141 80.4886 78.332 81.8046 78.336C83.0736 78.342 83.9766 79.029 84.1796 80.394Z" fill="#10647A"/>
<path fill-rule="evenodd" clip-rule="evenodd" d="M80.8695 89.9381C79.4695 89.9191 78.6585 89.1991 78.5285 87.8751C78.4195 86.7641 79.0095 85.9181 80.1085 85.6941C81.4485 85.4231 82.3955 86.0611 82.6285 87.4161C82.8595 88.7651 82.1545 89.5991 80.8695 89.9381Z" fill="#10647A"/>
<path fill-rule="evenodd" clip-rule="evenodd" d="M89.1571 75.8102C88.7811 77.3792 87.9821 78.0982 86.6721 77.9512C85.3601 77.8032 84.5941 76.9072 84.7701 75.6162C84.9161 74.5462 85.8411 74.0282 86.9131 74.0392C88.2321 74.0532 88.9141 74.8282 89.1571 75.8102Z" fill="#10647A"/>
<path fill-rule="evenodd" clip-rule="evenodd" d="M128.096 79.7578C128.638 80.3088 129.179 80.8608 129.722 81.4128C128.914 82.5498 128.45 84.2758 126.515 83.6318C126.056 83.4798 125.537 82.6918 125.519 82.1788C125.46 80.5078 126.875 80.1918 128.096 79.7578Z" fill="#10647A"/>
<path fill-rule="evenodd" clip-rule="evenodd" d="M101.427 95.5236C99.8188 93.4726 99.9598 91.8286 101.149 89.6406C102.985 91.6526 102.947 93.2926 101.427 95.5236Z" fill="#10647A"/>
<path fill-rule="evenodd" clip-rule="evenodd" d="M130.214 93.0347C129.298 92.8537 128.693 92.3546 128.864 91.3726C129.037 90.3786 129.876 90.0156 130.701 90.2776C131.197 90.4356 131.83 91.1496 131.843 91.6286C131.864 92.5116 131.197 93.0697 130.214 93.0347Z" fill="#10647A"/>
<path fill-rule="evenodd" clip-rule="evenodd" d="M122.753 89.2344C123.682 89.3464 124.258 89.8524 124.237 90.8104C124.216 91.7704 123.64 92.3174 122.678 92.2714C121.74 92.2264 121.148 91.6694 121.184 90.7084C121.22 89.7744 121.764 89.2314 122.753 89.2344Z" fill="#10647A"/>
<path fill-rule="evenodd" clip-rule="evenodd" d="M173.99 53.4924C173.963 54.2364 173.626 54.6684 173.082 54.5134C172.699 54.4054 172.233 53.9304 172.175 53.5604C172.133 53.2994 172.763 52.6474 173.001 52.6894C173.395 52.7594 173.714 53.2484 173.99 53.4924Z" fill="#10647A"/>
<path fill-rule="evenodd" clip-rule="evenodd" d="M73.875 86.3881C73.234 86.6361 72.789 86.9751 72.506 86.8701C72.24 86.7721 72.073 86.2201 72.017 85.8441C71.999 85.7271 72.564 85.3471 72.722 85.4141C73.082 85.5691 73.355 85.9251 73.875 86.3881Z" fill="#10647A"/>
</svg>
