<svg width="44" height="44" viewBox="0 0 44 44" fill="none" xmlns="http://www.w3.org/2000/svg">
<path d="M12.1 31.9C12.7075 32.5076 13.6925 32.5076 14.3 31.9L31.8999 14.3001C32.5074 13.6926 32.5074 12.7077 31.8999 12.1001V12.1001C31.2924 11.4926 30.3074 11.4926 29.6999 12.1001L12.1 29.7001C11.4925 30.3076 11.4925 31.2925 12.1 31.9V31.9Z" fill="white"/>
<path d="M12.1002 12.1C11.4927 12.7075 11.4927 13.6925 12.1002 14.3L29.7001 31.8999C30.3076 32.5074 31.2926 32.5074 31.9001 31.8999V31.8999C32.5076 31.2924 32.5076 30.3074 31.9001 29.6999L14.3002 12.1C13.6927 11.4925 12.7077 11.4925 12.1002 12.1V12.1Z" fill="white"/>
</svg>
