<svg width="25" height="24" viewBox="0 0 25 24" fill="none" xmlns="http://www.w3.org/2000/svg">
<g clip-path="url(#clip0_441_793)">
<path d="M23.8175 9.83706C23.9574 10.6425 24.0272 11.4586 24.026 12.2761C24.026 15.9271 22.721 19.0141 20.45 21.1036H20.453C18.467 22.9381 15.737 24.0001 12.5 24.0001C9.3174 24.0001 6.26516 22.7358 4.01472 20.4853C1.76428 18.2349 0.5 15.1827 0.5 12.0001C0.5 8.81746 1.76428 5.76521 4.01472 3.51478C6.26516 1.26434 9.3174 5.9408e-05 12.5 5.9408e-05C15.4789 -0.0348281 18.3558 1.08431 20.528 3.12306L17.102 6.54906C15.8636 5.36852 14.2107 4.72205 12.5 4.74906C9.3695 4.74906 6.71 6.86106 5.762 9.70506C5.25936 11.1953 5.25936 12.8093 5.762 14.2996H5.7665C6.719 17.1391 9.374 19.2511 12.5045 19.2511C14.1215 19.2511 15.5105 18.8371 16.5875 18.1051H16.583C17.2084 17.6908 17.7433 17.1541 18.1555 16.5273C18.5678 15.9006 18.8487 15.1969 18.9815 14.4586H12.5V9.83856L23.8175 9.83706Z" fill="#286272"/>
</g>
<defs>
<clipPath id="clip0_441_793">
<rect width="24" height="24" fill="white" transform="translate(0.5)"/>
</clipPath>
</defs>
</svg>
