<svg width="20" height="21" viewBox="0 0 20 21" fill="none" xmlns="http://www.w3.org/2000/svg">
<mask id="mask0_586_1585" style="mask-type:alpha" maskUnits="userSpaceOnUse" x="0" y="0" width="20" height="21">
<rect y="0.5" width="20" height="20" fill="#D9D9D9"/>
</mask>
<g mask="url(#mask0_586_1585)">
<path fill-rule="evenodd" clip-rule="evenodd" d="M9.99901 5.8744L14.6454 9.469V15.6226H12.009V11.6068C12.009 11.4028 11.829 11.218 11.6322 11.218H8.36641C8.16901 11.218 7.98961 11.4028 7.98961 11.6068V15.6226H5.35261V9.469L9.99901 5.8744ZM9.77101 5.0764L4.74841 8.9632C4.70183 9.00075 4.66428 9.04828 4.63853 9.10228C4.61277 9.15628 4.59947 9.21538 4.59961 9.2752V16.0108C4.59961 16.2148 4.77961 16.3996 4.97641 16.3996H8.36701C8.56441 16.3996 8.74381 16.2142 8.74381 16.0108V11.9956H11.2554V16.0114C11.2554 16.2154 11.4354 16.4002 11.6322 16.4002H15.0228C15.2202 16.4002 15.3996 16.2148 15.3996 16.0114V9.2746C15.3996 9.1546 15.3432 9.0358 15.2508 8.9626L10.2264 5.077C10.062 4.969 9.91861 4.9798 9.77161 5.077L9.77101 5.0764Z" fill="#BCBCBC"/>
</g>
</svg>
