<svg width="30" height="30" viewBox="0 0 30 30" fill="none" xmlns="http://www.w3.org/2000/svg">
<path fill-rule="evenodd" clip-rule="evenodd" d="M2.1967 2.1967C3.60322 0.790176 5.51088 0 7.5 0H22.5C24.4891 0 26.3968 0.790176 27.8033 2.1967C29.2098 3.60322 30 5.51088 30 7.5V22.5C30 24.4891 29.2098 26.3968 27.8033 27.8033C26.3968 29.2098 24.4891 30 22.5 30H7.5C5.51088 30 3.60322 29.2098 2.1967 27.8033C0.790176 26.3968 0 24.4891 0 22.5V7.5C0 5.51088 0.790176 3.60322 2.1967 2.1967ZM9.6967 9.6967C11.1032 8.29018 13.0109 7.5 15 7.5C16.9891 7.5 18.8968 8.29018 20.3033 9.6967C21.7098 11.1032 22.5 13.0109 22.5 15C22.5 16.9891 21.7098 18.8968 20.3033 20.3033C18.8968 21.7098 16.9891 22.5 15 22.5C13.0109 22.5 11.1032 21.7098 9.6967 20.3033C8.29018 18.8968 7.5 16.9891 7.5 15C7.5 13.0109 8.29018 11.1032 9.6967 9.6967ZM24.3107 7.81066C24.0294 8.09196 23.6478 8.25 23.25 8.25C22.8522 8.25 22.4706 8.09196 22.1893 7.81066C21.908 7.52936 21.75 7.14782 21.75 6.75C21.75 6.35218 21.908 5.97064 22.1893 5.68934C22.4706 5.40804 22.8522 5.25 23.25 5.25C23.6478 5.25 24.0294 5.40804 24.3107 5.68934C24.592 5.97064 24.75 6.35218 24.75 6.75C24.75 7.14782 24.592 7.52936 24.3107 7.81066Z" fill="white"/>
</svg>
