<svg width="44" height="44" viewBox="0 0 44 44" fill="none" xmlns="http://www.w3.org/2000/svg">
<path d="M8.7998 29.3334C8.7998 30.1434 9.45645 30.8 10.2665 30.8H33.7331C34.5432 30.8 35.1998 30.1434 35.1998 29.3334V29.3334C35.1998 28.5233 34.5432 27.8667 33.7331 27.8667H10.2665C9.45645 27.8667 8.7998 28.5233 8.7998 29.3334V29.3334Z" fill="#647174"/>
<path d="M8.7998 21.9999C8.7998 22.8099 9.45645 23.4665 10.2665 23.4665H33.7331C34.5432 23.4665 35.1998 22.8099 35.1998 21.9999V21.9999C35.1998 21.1899 34.5432 20.5332 33.7331 20.5332H10.2665C9.45645 20.5332 8.7998 21.1899 8.7998 21.9999V21.9999Z" fill="#647174"/>
<path d="M10.2665 13.2C9.45645 13.2 8.7998 13.8566 8.7998 14.6666V14.6666C8.7998 15.4766 9.45645 16.1333 10.2665 16.1333H33.7331C34.5432 16.1333 35.1998 15.4766 35.1998 14.6666V14.6666C35.1998 13.8566 34.5432 13.2 33.7331 13.2H10.2665Z" fill="#647174"/>
</svg>
