<svg width="16" height="16" viewBox="0 0 16 16" fill="none" xmlns="http://www.w3.org/2000/svg">
<path fill-rule="evenodd" clip-rule="evenodd" d="M11.3334 1.33335C11.3334 0.965164 11.0349 0.666687 10.6667 0.666687C10.2985 0.666687 10 0.965164 10 1.33335V2.00002H6.00004V1.33335C6.00004 0.965164 5.70156 0.666687 5.33337 0.666687C4.96518 0.666687 4.66671 0.965164 4.66671 1.33335V2.00002H3.33337C2.2288 2.00002 1.33337 2.89545 1.33337 4.00002V6.66669V13.3334C1.33337 14.4379 2.2288 15.3334 3.33337 15.3334H12.6667C13.7713 15.3334 14.6667 14.4379 14.6667 13.3334V6.66669V4.00002C14.6667 2.89545 13.7713 2.00002 12.6667 2.00002H11.3334V1.33335ZM13.3334 6.00002V4.00002C13.3334 3.63183 13.0349 3.33335 12.6667 3.33335H11.3334V4.00002C11.3334 4.36821 11.0349 4.66669 10.6667 4.66669C10.2985 4.66669 10 4.36821 10 4.00002V3.33335H6.00004V4.00002C6.00004 4.36821 5.70156 4.66669 5.33337 4.66669C4.96518 4.66669 4.66671 4.36821 4.66671 4.00002V3.33335H3.33337C2.96518 3.33335 2.66671 3.63183 2.66671 4.00002V6.00002H13.3334ZM2.66671 7.33335H13.3334V13.3334C13.3334 13.7015 13.0349 14 12.6667 14H3.33337C2.96518 14 2.66671 13.7015 2.66671 13.3334V7.33335Z" fill="#BCBCBC"/>
</svg>
