<svg width="348" height="299" viewBox="0 0 348 299" fill="none" xmlns="http://www.w3.org/2000/svg">
<g clip-path="url(#clip0_5_811)">
<path fill-rule="evenodd" clip-rule="evenodd" d="M94.2025 251.172C86.4845 251.502 85.9555 250.962 88.7115 244.944C90.9585 240.039 92.1575 235.326 89.5255 230.19C88.0415 227.294 88.9875 224.811 91.2305 222.536C92.0155 221.74 93.3415 220.281 91.9675 219.09C90.9585 218.214 89.8595 219.402 88.9245 220.057C86.0425 222.075 76.3295 220.285 74.0955 217.401C73.3195 216.399 73.4125 215.599 74.2435 214.803C74.8425 214.228 75.4445 213.603 76.1605 213.212C83.5555 209.167 87.1195 203.281 87.0105 194.534C86.9645 190.848 86.6175 188.17 83.9355 185.748C82.3335 184.301 80.9365 182.626 79.4755 181.028C77.9335 179.342 78.0725 178.094 80.4765 177.522C83.7125 176.752 86.9635 176.043 90.1845 175.216C95.6935 173.802 97.5235 168.329 94.0835 163.904C89.7295 158.301 88.9045 151.76 91.4605 145.538C94.5305 138.063 97.6235 130.501 102.719 123.955C106.676 118.873 111.635 116.61 117.837 116.863C128.41 117.293 138.629 119.53 148.349 123.71C151.363 125.007 154.087 125.865 157.419 124.83C161.212 123.651 164.981 124.183 168.403 126.471C173.088 129.603 177.949 130.04 182.966 127.229C190.505 123.004 198.07 122.583 205.773 126.893C207.975 128.125 210.102 127.468 212.383 126.348C218.343 123.423 224.28 120.45 230.977 119.277C241.24 117.479 247.794 119.978 253.592 128.579C259.433 137.243 266.038 145.473 269.352 155.607C271.971 163.617 269.473 172.417 262.859 177.524C259.774 179.906 260.825 181.424 263.565 182.438C266.832 183.647 270.29 184.328 273.639 185.324C276.193 186.083 277.152 187.345 274.611 189.382C274.481 189.486 274.374 189.626 274.231 189.706C264.694 195.128 265.941 204.235 266.205 213.038C266.268 215.123 267.372 216.379 268.909 217.524C270.911 219.017 272.865 220.578 274.783 222.177C277.283 224.263 277.023 226.037 274.057 227.403C273.754 227.542 273.462 227.78 273.15 227.81C259.166 229.147 258.643 241.05 255.714 250.665C254.621 254.25 257.777 257.862 258.788 261.529C260.279 266.944 259.832 267.787 254.426 266.376C247.752 264.634 242.273 266.648 235.915 268.841C226.839 271.971 223.103 276.846 223.085 285.943C223.077 289.993 220.237 289.157 218.395 287.298C212.775 281.63 206.763 281.911 199.325 283.597C192.263 285.198 187.336 287.478 184.041 294.248C180.969 300.562 180.085 300.271 176.499 294.446C175.714 293.171 174.784 291.942 174.244 290.566C172.887 287.107 170.446 285.694 166.823 286.154C166.659 286.175 166.476 286.197 166.326 286.147C157.426 283.193 149.912 284.778 143.91 292.468C142.347 294.471 140.352 294.053 139.564 291.26C139.338 290.459 138.985 289.648 138.982 288.839C138.938 279.774 132.983 275.805 125.486 273.291C121.909 272.092 118.699 274.176 115.355 274.961C112.544 275.62 109.36 278.179 106.971 275.717C104.867 273.547 106.757 270.189 107.78 267.725C109.708 263.078 108.548 259.956 104.492 257.296C100.941 254.968 99.2835 249.279 94.2025 251.172Z" fill="#10647A"/>
<path fill-rule="evenodd" clip-rule="evenodd" d="M145.678 256.161C143.002 255.981 140.653 257.114 138.329 258.346C136.714 259.201 135.029 259.95 133.495 260.933C121.375 268.706 112.661 258.598 109.623 249.194C108.877 246.883 109.272 244.192 107.294 242.064C104.473 243.995 106.705 247.211 104.825 249.994C96.8071 240.556 94.1271 229.695 95.3911 218.073C96.6941 206.093 101.626 195.98 114.202 191.379C109.208 190.662 105.548 193.318 101.803 195.468C99.0861 197.028 96.9851 197.853 97.2901 193.486C97.4321 191.459 94.7181 190.707 95.2621 189.413C98.7821 181.034 98.4521 171.37 103.766 163.654C106.092 160.276 107.556 156.682 108.312 152.691C109.263 147.678 112.021 143.856 116.416 141.249C117.422 140.652 118.552 139.987 119.681 140.754C121.092 141.712 120.679 143.171 120.106 144.359C117.656 149.45 115.076 154.479 112.611 159.563C112.06 160.698 110.928 161.645 111.301 163.675C115.09 159.387 118.661 155.392 122.18 151.351C126.124 146.821 130.488 142.752 135.135 138.944C138.931 135.833 138.506 133.819 133.942 131.965C124.507 128.131 111.356 134.514 106.936 145.125C105.084 149.571 103.65 154.208 100.803 158.186C100.144 159.106 99.7211 160.466 98.2741 160.194C96.9461 159.944 96.7231 158.63 96.3001 157.544C94.4691 152.842 95.4881 148.345 97.3431 143.96C99.9451 137.807 103.184 131.983 107.218 126.657C112.189 120.095 119.346 121.998 125.729 122.755C133.972 123.732 142.125 125.689 149.381 130.151C151.342 131.357 153.314 131.464 155.587 130.887C165.768 128.304 168.153 129.681 171.193 139.392C171.516 140.425 171.524 141.951 173.033 142.036C174.237 142.104 174.409 140.8 174.904 139.982C180.366 130.955 192.799 126.828 202.334 130.89C204.79 131.936 207.18 132.905 207.674 136.157C207.961 138.041 209.754 139.16 211.392 139.993C222.102 145.434 229.745 153.964 235.89 164.048C236.641 165.28 237.244 166.748 239.493 167.309C239.851 162.692 237.609 159.08 235.841 155.367C234.085 151.676 232.23 148.031 229.9 143.316C234.898 145.148 236.324 149.499 239.861 151.221C240.975 149.384 240.022 148.052 239.377 146.81C237.239 142.696 235.146 138.543 232.724 134.596C228.528 127.759 220.689 127.717 216.145 134.39C215.197 135.783 214.47 137.409 212.354 136.907C211.386 136.677 210.327 136.326 210.027 135.242C209.764 134.29 210.567 133.743 211.257 133.288C220.194 127.395 229.639 123.15 240.723 124.282C242.977 124.512 245.106 125.349 246.341 127.189C252.816 136.83 260.475 145.739 264.426 156.947C266.427 162.621 264.501 167.37 261.629 171.989C260.315 174.102 258.385 173.931 256.366 172.889C253.914 171.623 252.256 169.57 250.606 167.455C249.527 166.07 247.934 165.003 246.286 165.9C244.925 166.642 245.675 168.354 245.993 169.58C246.932 173.184 247.679 176.6 249.917 180.037C253.451 185.464 256.386 191.766 254.629 198.888C253.928 201.727 253.129 202.512 250.441 200.302C247.22 197.653 243.961 194.64 238.788 195.044C249.861 201.769 253.923 212.086 254.856 224.174C255.784 236.183 252.69 246.868 244.773 256.781C243.689 253.665 245.246 250.483 243.353 248.064C241.533 248.482 241.929 249.875 241.762 250.926C239.713 263.78 229.692 269.433 217.512 264.649C211.78 262.397 206.726 258.67 200.735 257.002C199.026 256.525 197.361 255.566 194.283 256.608C199.16 260.341 204.681 261.654 208.738 265.966C201.955 269.519 194.885 271.831 187.334 272.679C185.419 272.894 184.471 272.175 185.313 270.028C187.354 264.828 188.04 259.489 187.413 253.871C187.031 250.444 188.934 249.25 192.482 249.965C199.925 251.464 206.306 255.649 213.502 257.814C226.399 261.694 231.832 258.633 234.437 245.441C235.155 241.803 235.207 238.162 235.028 234.499C234.981 233.534 234.828 232.33 233.528 232.324C232.565 232.319 232.36 233.371 232.035 234.121C226.64 246.557 218.096 250.092 205.228 245.411C202.419 244.39 202.015 242.459 201.999 239.96C201.985 237.822 202.217 235.218 199.628 234.466C197.403 233.82 195.983 235.821 194.816 237.381C192.62 240.315 190.391 239.639 187.971 237.83C180.931 232.569 176.537 225.855 176.26 216.816C176.178 214.155 175.983 211.495 175.734 208.845C175.643 207.877 175.333 206.644 174.161 206.626C172.827 206.605 172.864 207.931 172.806 208.877C172.633 211.7 172.423 214.529 172.442 217.354C172.521 228.614 166.738 236.617 156.282 239.668C153.967 240.343 153.031 238.647 151.782 237.36C150.556 236.098 149.633 233.929 147.453 234.639C145.288 235.344 144.58 237.448 144.823 239.547C145.451 244.961 142.604 245.958 137.955 245.79C128.617 245.452 123.385 241.855 120.375 233.081C119.958 231.867 119.986 230.379 118.183 229.84C115.883 232.584 116.634 235.835 117.157 238.801C117.789 242.383 118.931 245.901 120.124 249.352C121.964 254.677 126.034 256.939 131.707 256.662C137.536 256.377 142.461 253.308 147.917 251.922C149.01 251.644 150.186 250.646 151.187 251.533C152.329 252.547 151.854 254.114 151.39 255.292C150.477 257.607 149.311 259.827 148.178 262.049C147.592 263.198 147.08 264.724 145.293 264.071C144.066 263.623 142.59 263.15 142.19 261.782C141.702 260.11 143.384 259.612 144.37 258.832C145.009 258.326 145.803 258.014 146.527 257.615C146.243 257.129 145.96 256.645 145.678 256.161Z" fill="white"/>
<path fill-rule="evenodd" clip-rule="evenodd" d="M166.28 257.856C164.152 262.244 161.733 265.569 160.477 269.559C159.886 271.439 160.071 274.348 156.878 274.03C153.6 273.702 150.979 270.983 151.554 268.429C153.496 259.799 156.108 251.286 159.06 242.94C159.818 240.797 163.047 239.829 165.659 240.703C168.422 241.628 166.692 244.125 167.014 245.914C167.126 246.538 167.262 247.157 167.442 248.054C169.667 247.103 169.546 244.962 170.433 243.537C173.009 239.393 178.186 238.204 182.02 241.077C182.641 241.542 183.542 242.369 183.468 242.915C182.306 251.505 186.021 260.491 181.232 268.804C178.96 272.748 176.196 275.774 171.444 276.44C166.139 277.184 163.467 274.661 164.221 269.37C164.475 267.581 165.156 265.851 165.65 264.097C166.129 262.395 167.441 260.855 166.28 257.856Z" fill="white"/>
<path fill-rule="evenodd" clip-rule="evenodd" d="M198.713 240.89C198.044 242.825 198.492 245.699 195.57 246.282C194.027 246.591 193.129 245.125 193.432 243.677C193.939 241.258 194.766 238.627 197.481 238.057C198.95 237.747 198.583 239.661 198.713 240.89Z" fill="white"/>
<path fill-rule="evenodd" clip-rule="evenodd" d="M150.648 246.33C149.12 246.244 148.472 245.035 148.366 243.71C148.189 241.513 146.494 239.38 147.981 237.131C148.098 236.954 149.044 237.02 149.275 237.273C151.199 239.389 152.214 241.947 152.391 244.774C152.442 245.607 151.726 246.225 150.648 246.33Z" fill="white"/>
<path fill-rule="evenodd" clip-rule="evenodd" d="M220.55 282.958C218.24 281.084 217.609 279.025 216.846 277.105C216.221 275.531 217.128 274.619 218.682 274.339C220.303 274.049 221.303 274.722 221.219 276.405C221.118 278.439 220.815 280.462 220.55 282.958Z" fill="white"/>
<path fill-rule="evenodd" clip-rule="evenodd" d="M79.3389 215.085C79.9549 213.037 81.9809 212.637 83.3029 211.495C84.6119 210.364 85.8099 210.659 86.3569 212.356C86.8399 213.853 86.4209 215.086 84.6569 215.226C82.9229 215.364 81.1339 216.221 79.3389 215.085Z" fill="white"/>
<path fill-rule="evenodd" clip-rule="evenodd" d="M271.206 187.247C267.8 188.595 265.821 190.606 263.233 188.926C262.297 188.319 262.099 186.94 262.946 186.381C265.36 184.788 267.526 186.824 271.206 187.247Z" fill="white"/>
<path fill-rule="evenodd" clip-rule="evenodd" d="M83.7383 179.88C86.8403 178.68 88.9573 177.45 91.1193 179.057C91.9323 179.661 91.8953 181.088 90.9803 181.641C88.5173 183.128 86.8203 180.929 83.7383 179.88Z" fill="white"/>
<path fill-rule="evenodd" clip-rule="evenodd" d="M110.806 270.527C110.773 268.231 110.138 265.653 112.914 264.673C113.824 264.353 114.981 265.303 115.078 266.308C115.348 269.104 112.664 269.381 110.806 270.527Z" fill="white"/>
<path fill-rule="evenodd" clip-rule="evenodd" d="M271.885 223.219C268.304 223.644 266.124 224.523 264.593 222.402C264.01 221.592 264.283 220.234 265.369 219.962C267.837 219.34 268.988 221.478 271.885 223.219Z" fill="white"/>
<path fill-rule="evenodd" clip-rule="evenodd" d="M142.145 288.26C141.369 285.188 140.203 283.101 141.489 280.916C141.94 280.151 143.195 280.576 143.627 281.255C145.149 283.648 143.415 285.4 142.145 288.26Z" fill="white"/>
<path fill-rule="evenodd" clip-rule="evenodd" d="M255.241 261.313C253.297 260.745 251.052 260.465 251.1 257.975C251.112 257.35 252.126 256.15 252.459 256.222C255.127 256.805 254.181 259.575 255.241 261.313Z" fill="white"/>
<path fill-rule="evenodd" clip-rule="evenodd" d="M179.288 292.112C178.164 290.439 176.207 289.118 177.224 286.75C177.32 286.526 178.246 286.362 178.511 286.553C180.676 288.113 179.562 290.157 179.288 292.112Z" fill="white"/>
<path fill-rule="evenodd" clip-rule="evenodd" d="M91.7012 246.163C91.8852 244.417 92.0802 243.125 93.4682 242.527C93.5962 242.471 94.2722 243.148 94.3142 243.528C94.4882 245.072 93.7682 245.989 91.7012 246.163Z" fill="white"/>
<path fill-rule="evenodd" clip-rule="evenodd" d="M256.12 205.915C256.097 205.243 256.09 204.487 257.01 204.551C257.957 204.616 258.5 205.339 258.36 206.228C258.274 206.77 257.737 207.631 257.351 207.66C256.257 207.74 256.284 206.689 256.12 205.915Z" fill="white"/>
<path fill-rule="evenodd" clip-rule="evenodd" d="M200.66 188.605C198.847 187.673 197.589 185.373 194.958 186.428C194.305 186.691 193.648 186.106 193.442 185.421C191.814 180.005 187.452 180.631 183.355 180.943C179.971 181.202 176.688 181.318 173.762 179.218C173.105 178.747 172.532 178.087 171.568 178.37C159.53 181.912 147.703 185.417 139.836 196.663C135.342 203.086 128.302 206.445 120.003 206.694C123.316 203.966 127.286 202.178 130.554 199.415C133.179 197.194 136.27 195.727 132.134 191.603C129.198 188.676 131.834 184.936 133.618 181.993C135.471 178.936 138.411 177.431 142.104 177.886C149.743 178.826 149.733 178.842 148.407 171.52C148.329 171.09 148.535 170.608 148.651 169.887C152.003 170.466 154.376 172.725 157.193 173.991C162.941 176.572 166.558 175.101 168.766 169.048C169.999 165.668 171.214 162.28 172.768 157.977C175.231 162.279 175.813 166.175 176.919 169.861C178.565 175.346 181.217 176.981 186.583 175.072C189.689 173.966 192.521 172.108 195.523 170.684C196.507 170.217 197.73 169.308 198.7 170.495C199.467 171.433 198.423 172.318 198.051 173.19C197.175 175.245 195.039 177.338 197.203 179.544C199.536 181.923 202.468 182.14 205.489 180.572C209.728 178.372 213.848 178.096 217.289 181.98C220.986 186.153 221.684 191.603 218.821 196.039C217.448 198.166 218.717 198.72 219.985 199.442C222.251 200.734 224.603 201.872 227.255 203.25C220.611 205.315 216.419 203.059 202.286 190.26C201.078 190.364 200.512 189.835 200.66 188.605Z" fill="#10647A"/>
<path fill-rule="evenodd" clip-rule="evenodd" d="M172.212 192.214C169.629 192.112 167.189 192.703 164.97 193.868C162.408 195.213 161.617 197.463 162.689 200.187C163.088 201.2 164.059 201.67 165.143 201.432C166.403 201.154 166.553 200.204 166.237 199.115C165.623 196.998 164.723 194.206 167.997 194.171C171.507 194.133 171.204 197.354 170.924 199.85C170.198 206.329 166.148 209.47 160.453 208.067C158.778 207.655 156.348 206.355 157.198 205.079C160.179 200.6 155.35 192.816 163.368 190.652C163.668 190.571 164.157 190.261 164.144 190.089C163.479 181.123 166.597 185.524 169.488 188.51C169.957 188.994 171.132 189.182 171.838 188.989C177.959 187.313 183.106 191.169 188.795 191.915C191.206 192.231 191.09 194.021 190.532 196.133C189.647 199.487 186.469 202.339 188.655 206.497C189.42 207.952 187.238 208.804 185.701 209.033C182.621 209.494 180.059 208.502 178.357 205.887C176.421 202.914 176.267 199.639 177.357 196.315C177.637 195.461 178.408 194.975 179.315 195.153C180.727 195.43 181.008 196.557 181.053 197.801C181.113 199.443 179.701 201.701 182.595 202.224C184.151 202.505 185.012 201.283 185.44 199.949C186.173 197.658 185.024 196.157 183.186 194.963C179.825 192.778 175.957 192.752 172.212 192.214Z" fill="#10647A"/>
<path fill-rule="evenodd" clip-rule="evenodd" d="M185.168 183.469C186.619 183.664 187.787 184.27 187.574 185.948C187.374 187.523 186.163 188.134 184.693 188.002C183.431 187.889 182.434 187.174 182.494 185.797C182.563 184.222 183.639 183.529 185.168 183.469Z" fill="#10647A"/>
<path fill-rule="evenodd" clip-rule="evenodd" d="M156.743 189.238C156.574 190.617 155.715 191.318 154.413 191.323C153.148 191.327 152.057 190.798 152.106 189.323C152.15 187.985 153.052 187.176 154.368 187.18C155.637 187.186 156.54 187.873 156.743 189.238Z" fill="#10647A"/>
<path fill-rule="evenodd" clip-rule="evenodd" d="M153.433 198.782C152.033 198.763 151.222 198.043 151.092 196.719C150.983 195.608 151.573 194.762 152.672 194.538C154.012 194.267 154.959 194.905 155.192 196.26C155.423 197.609 154.718 198.443 153.433 198.782Z" fill="#10647A"/>
<path fill-rule="evenodd" clip-rule="evenodd" d="M161.721 184.654C161.345 186.223 160.546 186.942 159.236 186.795C157.924 186.647 157.158 185.751 157.334 184.46C157.48 183.39 158.405 182.872 159.477 182.883C160.796 182.897 161.478 183.672 161.721 184.654Z" fill="#10647A"/>
<path fill-rule="evenodd" clip-rule="evenodd" d="M200.66 188.602C201.202 189.153 201.743 189.705 202.286 190.257C201.478 191.394 201.014 193.12 199.079 192.476C198.62 192.324 198.101 191.536 198.083 191.023C198.024 189.352 199.439 189.036 200.66 188.602Z" fill="#10647A"/>
<path fill-rule="evenodd" clip-rule="evenodd" d="M173.99 204.367C172.382 202.316 172.523 200.672 173.712 198.484C175.548 200.496 175.51 202.136 173.99 204.367Z" fill="#10647A"/>
<path fill-rule="evenodd" clip-rule="evenodd" d="M202.777 201.878C201.861 201.697 201.256 201.198 201.427 200.216C201.6 199.222 202.439 198.859 203.264 199.121C203.76 199.279 204.393 199.993 204.406 200.472C204.427 201.355 203.76 201.913 202.777 201.878Z" fill="#10647A"/>
<path fill-rule="evenodd" clip-rule="evenodd" d="M195.317 198.078C196.246 198.19 196.822 198.696 196.801 199.654C196.78 200.614 196.204 201.161 195.242 201.115C194.304 201.07 193.712 200.513 193.748 199.552C193.784 198.618 194.328 198.075 195.317 198.078Z" fill="#10647A"/>
<path fill-rule="evenodd" clip-rule="evenodd" d="M246.553 162.336C246.526 163.08 246.189 163.512 245.645 163.357C245.262 163.249 244.796 162.774 244.738 162.404C244.696 162.143 245.326 161.491 245.564 161.533C245.958 161.603 246.277 162.092 246.553 162.336Z" fill="#10647A"/>
<path fill-rule="evenodd" clip-rule="evenodd" d="M146.439 195.232C145.798 195.48 145.352 195.819 145.069 195.714C144.803 195.616 144.636 195.064 144.58 194.688C144.562 194.571 145.128 194.191 145.286 194.258C145.646 194.413 145.919 194.769 146.439 195.232Z" fill="#10647A"/>
<path d="M41.64 180.933C41.4998 181.986 41.0269 182.856 40.2212 183.542C39.4155 184.228 38.5253 184.506 37.5506 184.377L3.74717 179.874C2.77245 179.744 1.98353 179.262 1.38041 178.427C0.782482 177.554 0.55623 176.572 0.701653 175.48L2.79731 159.748C3.2959 156.005 4.74592 153.163 7.14736 151.221C9.51501 149.235 12.4533 148.475 15.9623 148.943C17.6389 149.166 19.1777 149.827 20.5788 150.927C21.9409 152.021 22.9327 153.363 23.5541 154.954L23.7295 154.977C24.7014 153.043 26.0645 151.598 27.8189 150.641C29.5784 149.645 31.4914 149.285 33.5578 149.561C35.8972 149.872 37.9104 150.696 39.5974 152.032C41.2845 153.367 42.505 155.078 43.2591 157.162C44.0131 159.247 44.2239 161.536 43.8915 164.032L41.64 180.933ZM19.9758 162.155C20.1472 160.869 19.7663 159.707 18.8331 158.67C17.905 157.594 16.7002 156.957 15.2186 156.76C13.6201 156.547 12.2958 156.807 11.2458 157.54C10.201 158.234 9.58252 159.303 9.39035 160.745L7.80108 172.676L18.3866 174.086L19.9758 162.155ZM37.2673 163.268C37.4802 161.67 37.1812 160.34 36.3701 159.28C35.52 158.214 34.2567 157.57 32.5802 157.347C30.9426 157.128 29.6132 157.428 28.5918 158.244C27.5366 159.016 26.8999 160.221 26.6818 161.858L24.9367 174.959L35.5222 176.369L37.2673 163.268Z" fill="#10647A"/>
<path d="M54.3275 132.146C52.9582 135.153 51.1108 137.596 48.7852 139.476C46.476 141.321 43.9377 142.434 41.1705 142.816C38.4033 143.198 35.6594 142.77 32.9389 141.531L13.8773 132.85C12.1591 132.068 11.1296 130.864 10.7889 129.24C10.4125 127.599 10.7622 125.597 11.8381 123.235L36.2154 134.336C38.6138 135.428 40.8875 135.513 43.0366 134.59C45.1857 133.667 46.8553 131.898 48.0453 129.285C49.2352 126.672 49.4729 124.252 48.7583 122.025C48.0437 119.798 46.4873 118.138 44.0889 117.046L25.0273 108.366C23.2733 107.567 22.2259 106.355 21.8853 104.731C21.5446 103.106 21.9122 101.112 22.9881 98.7499L47.3654 109.851C50.086 111.09 52.2104 112.879 53.7387 115.217C55.2671 117.555 56.0855 120.219 56.1941 123.207C56.319 126.16 55.6968 129.139 54.3275 132.146Z" fill="#10647A"/>
<path d="M67.0298 108.63C66.2926 109.501 65.342 109.984 64.1779 110.081C63.0392 110.147 62.0345 109.812 61.164 109.075L36.8951 88.5246C35.3942 87.2537 34.703 85.8179 34.8213 84.2173C34.9097 82.5913 35.8181 80.7577 37.5465 78.7165L64.2469 101.326L74.5412 89.1688C75.7358 87.758 77.0884 87.0737 78.599 87.1158C80.0795 87.1325 81.6753 87.8653 83.3862 89.3141L67.0298 108.63Z" fill="#10647A"/>
<path d="M89.5268 84.6574C88.5989 85.3209 87.5588 85.5568 86.4064 85.3653C85.2861 85.1509 84.3942 84.5798 83.7308 83.6519L65.2351 57.7827C64.0912 56.1829 63.7727 54.6216 64.2796 53.0987C64.7636 51.5439 66.0934 49.9887 68.2692 48.4331L88.6179 76.8939L101.576 67.6289C103.08 66.5537 104.559 66.2215 106.014 66.6324C107.445 67.0112 108.813 68.1126 110.116 69.9364L89.5268 84.6574Z" fill="#10647A"/>
<path d="M116.938 66.7528C115.903 67.1269 114.901 67.133 113.934 66.7712C112.991 66.3591 112.345 65.6721 111.998 64.7102L100.417 32.6351C100.069 31.6732 100.134 30.7509 100.609 29.8682C101.072 28.9484 101.84 28.2949 102.912 27.9075L115.232 23.4592C118.525 22.2704 121.656 21.8507 124.626 22.2002C127.632 22.5363 130.234 23.6041 132.431 25.4036C134.652 27.1527 136.29 29.4886 137.345 32.4113L140.511 41.1792C141.567 44.1018 141.805 46.9638 141.228 49.7652C140.65 52.5665 139.319 55.0755 137.234 57.292C135.172 59.4582 132.514 61.1291 129.258 62.3046L116.938 66.7528ZM126.399 56.1232C129.617 54.9611 131.799 53.358 132.942 51.3141C134.073 49.2331 134.124 46.7683 133.095 43.9197L129.869 34.9853C128.867 32.2106 127.274 30.4024 125.088 29.5607C122.902 28.719 120.2 28.8792 116.981 30.0414L108.935 32.9467L118.352 59.0286L126.399 56.1232Z" fill="#10647A"/>
<path d="M166.254 55.2836C163.034 55.4654 160.053 55.0033 157.312 53.8974C154.568 52.7522 152.349 51.1244 150.654 49.0139C148.998 46.9012 148.097 44.5489 147.951 41.957L147.176 28.2319C147.03 25.64 147.661 23.2209 149.071 20.9745C150.517 18.6867 152.541 16.839 155.14 15.4316C157.737 13.9849 160.646 13.1707 163.866 12.9889C167.086 12.8071 170.068 13.2888 172.812 14.434C175.593 15.5377 177.811 17.1459 179.466 19.2586C181.159 21.3298 182.079 23.6614 182.225 26.2532L183 39.9784C183.146 42.5703 182.496 45.0101 181.049 47.298C179.642 49.5836 177.62 51.4509 174.983 52.8998C172.384 54.3072 169.474 55.1018 166.254 55.2836ZM165.865 48.3915C168.81 48.2253 171.128 47.405 172.817 45.9308C174.505 44.4173 175.285 42.5413 175.159 40.3029L174.4 26.8722C174.272 24.5945 173.285 22.8183 171.44 21.5436C169.593 20.2296 167.197 19.6558 164.252 19.822C161.346 19.9861 159.049 20.8249 157.362 22.3384C155.672 23.8126 154.892 25.6886 155.02 27.9663L155.779 41.3969C155.905 43.6354 156.892 45.4116 158.739 46.7256C160.583 48.0003 162.959 48.5556 165.865 48.3915Z" fill="#10647A"/>
<path d="M204.706 58.6636C201.302 57.8465 198.418 56.4665 196.053 54.5235C193.726 52.5897 192.096 50.2772 191.165 47.5861C190.233 44.895 190.125 42.0578 190.841 39.0746L193.375 28.5184C194.091 25.5351 195.451 23.0705 197.456 21.1245C199.507 19.1495 201.985 17.843 204.889 17.2051C207.802 16.529 210.941 16.5948 214.307 17.4027C217.672 18.2105 220.532 19.4429 222.885 21.0998C225.285 22.7277 226.996 24.6148 228.018 26.7613C229.04 28.9078 229.271 31.1475 228.711 33.4806C228.371 34.8957 227.627 35.8901 226.478 36.4638C225.367 37.0467 224.028 37.1499 222.46 36.7735C221.695 36.5899 220.881 36.2732 220.018 35.8234C220.315 34.9239 220.569 34.0342 220.78 33.1546C221.267 31.1275 220.762 29.2671 219.268 27.5735C217.773 25.8799 215.592 24.6888 212.723 24.0003C209.893 23.3209 207.386 23.5687 205.203 24.7436C203.058 25.9277 201.678 27.801 201.063 30.3636L198.529 40.9198C197.914 43.4823 198.327 45.8062 199.768 47.8915C201.209 49.9768 203.383 51.3683 206.29 52.066C209.12 52.7453 211.571 52.6459 213.643 51.7678C215.762 50.8606 217.073 49.3552 217.578 47.2517L218.005 45.4732L213.071 44.2889C211.618 43.9401 210.565 43.1009 209.914 41.7714C209.271 40.4037 209.166 38.821 209.597 37.0234L223.538 40.3696C224.609 40.6266 225.392 41.1583 225.886 41.9645C226.38 42.7708 226.498 43.7094 226.241 44.7803L225.167 49.2552C224.534 51.8943 223.243 54.072 221.294 55.7885C219.354 57.4668 216.926 58.5629 214.012 59.0769C211.136 59.6 208.034 59.4622 204.706 58.6636Z" fill="#10647A"/>
<path d="M251.982 80.7058C249.168 78.6235 247.052 76.226 245.635 73.5132C244.248 70.8238 243.652 68.0585 243.847 65.2173C244.041 62.3761 245.05 59.7225 246.875 57.2562L253.333 48.5297C255.158 46.0635 257.373 44.3264 259.978 43.3183C262.638 42.3021 265.43 42.0678 268.352 42.6154C271.297 43.1314 274.161 44.4188 276.944 46.4777C279.726 48.5366 281.876 50.7884 283.395 53.2331C284.968 55.6696 285.794 58.0911 285.872 60.4979C285.974 62.873 285.311 65.0249 283.884 66.9536C283.018 68.1235 281.933 68.7638 280.628 68.8745C279.378 68.9769 278.104 68.5485 276.808 67.5892C276.176 67.1213 275.55 66.5117 274.932 65.7605C275.557 65.0484 276.138 64.3288 276.676 63.6016C277.916 61.9258 278.179 60.0164 277.465 57.8734C276.751 55.7304 275.209 53.7814 272.837 52.0267C270.498 50.2953 268.093 49.5438 265.625 49.7721C263.211 49.9922 261.232 51.1456 259.688 53.2324L253.23 61.959C251.663 64.0774 251.146 66.3621 251.681 68.8131C252.216 71.2641 253.685 73.3787 256.088 75.1569C258.46 76.9116 260.775 77.8171 263.033 77.8734C265.291 77.9296 267.028 77.1357 268.245 75.4916C268.806 74.7327 269.313 73.9821 269.764 73.2397C270.672 73.6666 271.394 74.0788 271.932 74.4766C273.26 75.4593 274.062 76.5908 274.337 77.8714C274.613 79.1519 274.306 80.3929 273.417 81.5944C272.037 83.4598 270.196 84.691 267.895 85.288C265.617 85.8534 263.083 85.7399 260.293 84.9476C257.535 84.1787 254.765 82.7647 251.982 80.7058Z" fill="#10647A"/>
<path d="M271.699 97.2508C270.996 96.3529 270.714 95.3241 270.855 94.1645C271.02 93.0358 271.552 92.1198 272.45 91.4164L297.484 71.8052C299.032 70.5924 300.578 70.2058 302.122 70.6454C303.696 71.0608 305.308 72.3213 306.958 74.4268L279.415 96.0027L289.239 108.543C290.379 109.998 290.776 111.461 290.429 112.932C290.113 114.379 289.073 115.793 287.308 117.176L271.699 97.2508Z" fill="#10647A"/>
<path d="M295.499 136.389C294.25 133.331 293.738 130.311 293.965 127.329C294.206 124.383 295.137 121.773 296.756 119.497C298.376 117.221 300.569 115.517 303.337 114.387L322.727 106.467C324.474 105.753 326.056 105.829 327.472 106.695C328.925 107.546 330.142 109.174 331.123 111.577L306.326 121.706C303.887 122.702 302.266 124.299 301.464 126.496C300.662 128.693 300.804 131.121 301.889 133.779C302.975 136.437 304.574 138.27 306.685 139.277C308.795 140.284 311.071 140.29 313.51 139.293L332.9 131.373C334.684 130.644 336.285 130.713 337.701 131.579C339.117 132.445 340.315 134.08 341.297 136.483L316.5 146.612C313.733 147.742 310.974 148.062 308.224 147.571C305.474 147.08 302.974 145.849 300.725 143.878C298.49 141.944 296.748 139.448 295.499 136.389Z" fill="#10647A"/>
<path d="M304.085 161.061C303.984 160.004 304.249 159.05 304.879 158.2C305.51 157.35 306.314 156.878 307.293 156.785L341.241 153.552C342.22 153.459 343.098 153.751 343.873 154.428C344.653 155.144 345.095 156.05 345.199 157.146L346.703 172.946C347.061 176.705 346.289 179.801 344.387 182.234C342.528 184.703 339.837 186.105 336.313 186.44C334.629 186.601 332.981 186.303 331.368 185.548C329.794 184.789 328.525 183.705 327.561 182.295L327.385 182.312C326.874 184.415 325.872 186.131 324.379 187.458C322.889 188.825 321.106 189.607 319.031 189.805C316.681 190.028 314.534 189.68 312.59 188.759C310.645 187.837 309.07 186.446 307.866 184.586C306.661 182.725 305.94 180.541 305.701 178.035L304.085 161.061ZM329.424 174.472C329.547 175.765 330.18 176.811 331.323 177.611C332.47 178.45 333.787 178.798 335.275 178.657C336.881 178.504 338.112 177.952 338.97 177.001C339.831 176.089 340.193 174.909 340.055 173.46L338.914 161.478L328.283 162.491L329.424 174.472ZM312.327 177.286C312.48 178.891 313.071 180.119 314.1 180.969C315.169 181.816 316.545 182.159 318.228 181.999C319.873 181.842 321.101 181.251 321.912 180.225C322.766 179.235 323.114 177.918 322.958 176.274L321.705 163.117L311.074 164.129L312.327 177.286Z" fill="#10647A"/>
</g>
<defs>
<clipPath id="clip0_5_811">
<rect width="348" height="299" fill="white"/>
</clipPath>
</defs>
</svg>
